Motion_pl15
version=1
nRows=15
nColumns=43
inDegrees=yes
endheader
time	pelvis_tilt	pelvis_list	pelvis_rotation	pelvis_tx	pelvis_ty	pelvis_tz	hip_flexion_r	hip_adduction_r	hip_rotation_r	knee_angle_r	ankle_angle_r	subtalar_angle_r	mtp_angle_r	hip_flexion_l	hip_adduction_l	hip_rotation_l	knee_angle_l	ankle_angle_l	subtalar_angle_l	mtp_angle_l	lumbar_extension	lumbar_bending	lumbar_rotation	neck_flexion	neck_lateral_bending	neck_rotation	arm_flex_r	arm_add_r	arm_rot_r	elbow_flex_r	pro_sup_r	wrist_flex_r	wrist_dev_r	hand_finger_flex_r	arm_flex_l	arm_add_l	arm_rot_l	elbow_flex_l	pro_sup_l	wrist_flex_l	wrist_dev_l	hand_finger_flex_l
      0.00250000	     -1.56006144	      5.70694796	     89.67993851	      0.06332153	      1.77635955	      1.96105540	     83.85188057	     -6.34842643	      7.60923225	   -148.04470239	     21.07080629	      9.48895639	     10.78439438	     82.36953042	    -10.43155406	     10.97012655	   -147.10161073	     18.04619077	     29.64791397	     36.42517510	    -57.53215119	     -3.17772495	     -1.40959968	      7.73026198	      5.68249162	     -2.50320290	     20.27002522	    -23.87076788	    -70.27667496	    139.16512253	    144.76159489	     15.06833799	     17.17687499	    -24.08461316	     25.06550947	    -22.35160151	    -66.26195586	    142.61542520	    154.15794931	     14.48975370	     20.52257165	     -2.51304986
      0.00500000	     -1.57701891	      5.74842881	     89.70506324	      0.06325830	      1.77555234	      1.96137956	     83.94899037	     -6.37018883	      7.63116077	   -148.15557927	     21.09615836	      9.43209802	     10.78563467	     82.45918076	    -10.42092185	     11.00866387	   -147.20570443	     18.07353962	     29.68906522	     36.42218308	    -57.53762214	     -3.17018354	     -1.42118616	      7.80166914	      5.68248161	     -2.41651668	     20.36162667	    -23.98415535	    -70.29854608	    139.08278157	    144.80218234	     15.05849287	     17.07687488	    -24.10900848	     25.21919899	    -22.47002651	    -66.13310723	    142.58222157	    154.09475102	     14.49957477	     20.52467286	     -2.50445574
      0.00750000	     -1.57969031	      5.80247944	     89.71119359	      0.06319131	      1.77496100	      1.96168679	     83.99954522	     -6.37505999	      7.63282934	   -148.24389929	     21.10982936	      9.41940644	     10.78727929	     82.51426525	    -10.44411250	     11.01108127	   -147.27830528	     18.08434163	     29.70306317	     36.42332101	    -57.58018561	     -3.16068366	     -1.43773127	      7.81085032	      5.67392168	     -2.39965220	     20.40278395	    -24.03985685	    -70.29303542	    139.11620161	    144.81189188	     15.04739758	     17.03686833	    -24.11661143	     25.27154446	    -22.51952972	    -66.08728005	    142.63212708	    154.08091019	     14.49600575	     20.51065956	     -2.50385170
      0.01000000	     -1.59615460	      5.86964691	     89.71381479	      0.06315799	      1.77403433	      1.96181925	     84.07253619	     -6.39780282	      7.66344508	   -148.39150298	     21.13673615	      9.38934956	     10.78962077	     82.57720602	    -10.47097985	     11.05004650	   -147.43007645	     18.10109427	     29.72725760	     36.42584036	    -57.59409428	     -3.16130508	     -1.44523800	      7.86000524	      5.64701080	     -2.36380507	     20.49328466	    -24.15285441	    -70.29151192	    139.10070881	    144.83683484	     15.03237637	     16.96558162	    -24.12834860	     25.38198988	    -22.62946432	    -66.01987235	    142.64891222	    154.06103848	     14.50156284	     20.49213688	     -2.49910223
      0.01250000	     -1.63287554	      5.78348057	     89.71244684	      0.06326488	      1.77296574	      1.96211405	     84.32060986	     -6.36044433	      7.67631472	   -148.50213424	     21.20131087	      9.12075372	     10.72376531	     82.79431105	    -10.46519959	     11.22337571	   -147.50810429	     18.21126528	     30.38785190	     36.39422868	    -57.45131309	     -3.22556983	     -1.36509224	      7.94592715	      5.70183933	     -2.17748114	     20.43729703	    -24.17942646	    -70.62282831	    138.94567671	    145.53019493	     15.05371036	     15.86596123	    -24.22281054	     25.66115247	    -22.76914965	    -65.72774708	    142.61474704	    153.90435788	     14.89428370	     20.69234055	     -2.27178236
      0.01500000	     -1.63824810	      5.84820768	     89.71971632	      0.06323152	      1.77238492	      1.96234834	     84.37535550	     -6.36869721	      7.67669268	   -148.58286223	     21.20971973	      9.11920707	     10.72398651	     82.84922115	    -10.49932134	     11.23416519	   -147.58702797	     18.21606178	     30.39003965	     36.39452927	    -57.50100170	     -3.22162432	     -1.37880117	      7.96000287	      5.70303237	     -2.18259934	     20.49811045	    -24.23787716	    -70.59126810	    138.98938945	    145.53596204	     15.05339060	     15.84936384	    -24.22306831	     25.71392453	    -22.82044340	    -65.67924831	    142.65149451	    153.89938294	     14.88991535	     20.67257590	     -2.27339679
      0.01750000	     -1.64743954	      5.90291629	     89.72045904	      0.06326954	      1.77152187	      1.96255077	     84.45222097	     -6.36126588	      7.72264783	   -148.70923064	     21.22149980	      9.11333680	     10.71837170	     82.92528130	    -10.51380985	     11.29914897	   -147.71697613	     18.21777515	     30.40699205	     36.39102515	    -57.49746944	     -3.23914975	     -1.36409534	      8.06264234	      5.70085880	     -2.19787931	     20.68389809	    -24.37833400	    -70.50884912	    138.91384025	    145.58818002	     15.09849163	     15.86159252	    -24.20824610	     25.88941706	    -22.99021790	    -65.56404262	    142.56567650	    153.90070261	     14.92522714	     20.64723924	     -2.26090246
      0.02000000	     -1.64135082	      5.95388346	     89.71028990	      0.06317065	      1.77103897	      1.96279577	     84.50002323	     -6.36939324	      7.72538021	   -148.76029656	     21.22874406	      9.11289727	     10.71817924	     82.98073581	    -10.53284886	     11.30132768	   -147.77917440	     18.22323373	     30.41487176	     36.39156716	    -57.54828939	     -3.23824379	     -1.38041443	      8.06809045	      5.70800328	     -2.20176555	     20.73818867	    -24.43651465	    -70.46942125	    138.98935261	    145.59652841	     15.09905276	     15.85363570	    -24.20811031	     25.93795628	    -23.04530460	    -65.50546466	    142.61931947	    153.89570313	     14.92837316	     20.62608124	     -2.25850143
      0.02250000	     -1.64225838	      6.01469848	     89.71458693	      0.06324421	      1.77019739	      1.96299355	     84.58755773	     -6.36567569	      7.78165675	   -148.90046265	     21.23858022	      9.11368470	     10.71254773	     83.05939313	    -10.55266455	     11.36906328	   -147.92099030	     18.22469951	     30.44003616	     36.38930946	    -57.55196271	     -3.26378589	     -1.37262628	      8.17669371	      5.73256400	     -2.21881114	     20.93422680	    -24.56963027	    -70.37442143	    138.92125259	    145.66719424	     15.16411650	     15.94610157	    -24.18602906	     26.12507913	    -23.22633663	    -65.37009577	    142.51570046	    153.90769548	     15.00400828	     20.61280711	     -2.22796821
      0.02500000	     -1.65569246	      6.05925986	     89.71625139	      0.06318983	      1.76971033	      1.96323048	     84.62478153	     -6.36804596	      7.77779717	   -148.94067439	     21.24196012	      9.11768152	     10.71172910	     83.11597060	    -10.57101673	     11.36596698	   -147.96178053	     18.22955730	     30.44990817	     36.38961537	    -57.59252392	     -3.26229110	     -1.37291581	      8.17965664	      5.74444435	     -2.22353722	     20.99149174	    -24.63882072	    -70.32151823	    139.01720033	    145.67844969	     15.16950847	     15.95016112	    -24.18397411	     26.17872638	    -23.29247526	    -65.30498627	    142.59107503	    153.90553525	     15.01237992	     20.59115254	     -2.22257130
      0.02750000	     -1.67304068	      6.14306317	     89.69170440	      0.06337912	      1.76909049	      1.96355396	     84.68336111	     -6.31902171	      7.83839837	   -149.03454903	     21.22849007	      9.21285981	     10.65521820	     83.15287622	    -10.62844140	     11.44116213	   -148.03946464	     18.19683714	     30.65712413	     36.36405501	    -57.63241508	     -3.33677647	     -1.33662524	      8.23788497	      5.85978515	     -2.30552105	     21.23475770	    -24.79950758	    -70.07711636	    139.12946647	    146.21087481	     15.66669914	     16.86988333	    -24.00437087	     26.53356425	    -23.46022286	    -65.01926847	    142.60050197	    154.21565334	     15.59376405	     20.78166112	     -1.95743135
      0.03000000	     -1.66942044	      6.19873415	     89.69990987	      0.06334639	      1.76859432	      1.96376897	     84.72802309	     -6.32566173	      7.84561181	   -149.09496672	     21.23905743	      9.20891616	     10.65557203	     83.20412436	    -10.65059068	     11.44261732	   -148.10389081	     18.20456283	     30.65838562	     36.36530116	    -57.67784748	     -3.33081497	     -1.34303224	      8.24996721	      5.85536831	     -2.30254422	     21.27875081	    -24.87656498	    -70.04311848	    139.17606677	    146.21193340	     15.66565085	     16.85077235	    -24.00528277	     26.56540526	    -23.53271521	    -64.96693964	    142.63531232	    154.21555613	     15.59583381	     20.75635652	     -1.95661497
      0.03250000	     -1.67100590	      6.26375884	     89.70418618	      0.06329719	      1.76789922	      1.96392971	     84.77768978	     -6.33968864	      7.86949919	   -149.21101334	     21.25090601	      9.20146555	     10.65575369	     83.26537160	    -10.67472343	     11.46358791	   -148.21063183	     18.21351827	     30.65507575	     36.36720623	    -57.70730207	     -3.32358336	     -1.33954145	      8.29796275	      5.84451464	     -2.29672331	     21.36959336	    -24.99127875	    -69.99863131	    139.18461748	    146.21825911	     15.67091732	     16.83457424	    -24.00385060	     26.63593114	    -23.65840917	    -64.89293142	    142.63417964	    154.22027123	     15.60707054	     20.72508672	     -1.95328453
      0.03500000	     -1.67206283	      6.31484174	     89.70990337	      0.06328829	      1.76724432	      1.96420752	     84.83842951	     -6.33658457	      7.90196778	   -149.30533269	     21.26217873	      9.19674068	     10.65305344	     83.32861848	    -10.67649963	     11.50593804	   -148.30452597	     18.22271857	     30.64588563	     36.36872456	    -57.72077537	     -3.31905401	     -1.33535127	      8.39914872	      5.81295709	     -2.28473004	     21.50939812	    -25.13812808	    -69.93895911	    139.10845958	    146.24072445	     15.70113794	     16.82879837	    -23.99245214	     26.74520461	    -23.83183264	    -64.78614163	    142.54923088	    154.24580364	     15.65033943	     20.69465133	     -1.93889787
      0.03750000	     -1.66815075	      6.36056444	     89.72211914	      0.06329741	      1.76690383	      1.96443898	     84.88397693	     -6.33003599	      7.90496568	   -149.33736720	     21.26924398	      9.19663849	     10.65287633	     83.37570759	    -10.68799636	     11.50758391	   -148.33270055	     18.22893420	     30.64557363	     36.36966239	    -57.77327785	     -3.31386374	     -1.34351931	      8.41688707	      5.80527545	     -2.28172757	     21.54874018	    -25.17649535	    -69.91430601	    139.11871693	    146.24653666	     15.70771957	     16.82081585	    -23.98949101	     26.77196864	    -23.86900006	    -64.74402120	    142.55305097	    154.25238492	     15.66173389	     20.68279007	     -1.93448875
